<?xml version="1.0" encoding="utf-8"?>
<!-- Generator: Adobe Illustrator 24.0.1, SVG Export Plug-In . SVG Version: 6.00 Build 0)  -->
<svg version="1.1" id="Layer_1" xmlns="http://www.w3.org/2000/svg" xmlns:xlink="http://www.w3.org/1999/xlink" x="0px" y="0px"
	 viewBox="0 0 163 41" style="enable-background:new 0 0 163 41;" xml:space="preserve">
<style type="text/css">
	.st0{fill:#263767;}
	.st1{fill:none;stroke:#263767;stroke-width:4;stroke-miterlimit:10;}
</style>
<g>
	<path class="st0" d="M41.5,27.8l3-3.6c1.8,1.5,4,2.4,6.2,2.4c2.3,0,3.3-0.9,3.3-2c0-1.7-1.4-2.1-3.6-3l-3.1-1.3c-2.6-1-5-3-5-6.4
		c0-3.9,3.5-7,8.6-7c2.8,0,5.7,1.1,7.8,3.1l-2.7,3.3c-1.7-1.2-3.1-1.8-5.4-1.8c-1.7,0-2.9,0.7-2.9,2.1c0,1.4,1.6,1.9,3.8,2.8
		l2.9,1.2c3.1,1.2,5,3.1,5,6.4c0,3.9-3.3,7.3-9.1,7.3C47.2,31.2,44,30,41.5,27.8z"/>
	<path class="st0" d="M62,5.5h5.3v6.2L67,15.1h0.1c1.3-1.4,3.2-2.7,5.9-2.7c4,0,5.8,2.8,5.8,7.3v11h-5.3V20.4c0-2.4-0.7-3.4-2.6-3.4
		c-1.4,0-2.4,0.7-3.6,1.9v11.9H62V5.5z"/>
	<path class="st0" d="M81.2,21.8c0-5.8,4.5-9.4,9.3-9.4c5.5,0,8.4,3.7,8.4,8.6c0,1-0.1,1.9-0.2,2.4H85.2v-3.6h10l-0.8,1
		c0-2.9-1.2-4.4-3.6-4.4c-2.6,0-4.3,1.8-4.3,5.3c0,3.7,2,5.3,5.5,5.3c1.6,0,3-0.4,4.6-1.2l1.8,3.2c-2,1.3-4.7,2.1-7.1,2.1
		C85.6,31.2,81.2,27.7,81.2,21.8z"/>
	<path class="st0" d="M106.4,23.7V9.7h-5.6V5.5h10.9V24c0,2.2,1.4,2.9,2.9,2.9c0.8,0,1.7-0.2,2.8-0.6l1.2,3.9c-1.9,0.6-3.1,1-5.3,1
		C108.8,31.2,106.4,28.3,106.4,23.7z"/>
	<path class="st0" d="M126.2,23.7V9.7h-5.6V5.5h10.9V24c0,2.2,1.4,2.9,2.9,2.9c0.8,0,1.7-0.2,2.8-0.6l1.2,3.9c-1.9,0.6-3.1,1-5.3,1
		C128.6,31.2,126.2,28.3,126.2,23.7z"/>
	<path class="st0" d="M141.1,37.3l0.9-4c0.5,0.1,0.9,0.2,1.4,0.2c2.1,0,3.2-1,3.7-2.3l0.3-0.9l-7.7-17.4h5.3l3,7.7
		c0.6,1.7,1.2,3.5,1.8,5.4h0.1c0.5-1.8,1.1-3.6,1.6-5.4l2.6-7.7h5l-7,18.1c-1.7,4.5-3.9,6.8-8.4,6.8
		C142.7,37.7,141.8,37.6,141.1,37.3z"/>
</g>
<g>
	<g>
		<path class="st1" d="M28.8,26.4c-0.3,1.1-1.4,2.2-2.4,2.5l-10.1,2.8c-1.1,0.3-2.6-0.1-3.4-0.9l-7.5-7.3c-0.8-0.8-1.2-2.3-0.9-3.3
			L7.1,10c0.3-1.1,1.4-2.2,2.4-2.5l10.1-2.8c1.1-0.3,2.6,0.1,3.4,0.9l7.5,7.3c0.8,0.8,1.2,2.3,0.9,3.3L28.8,26.4z"/>
	</g>
	<line class="st1" x1="7.6" y1="7.8" x2="31.6" y2="14.7"/>
	<line class="st1" x1="14.2" y1="32.1" x2="31.6" y2="14.7"/>
</g>
</svg>
